<svg xmlns="http://www.w3.org/2000/svg" width="1440" height="900" viewBox="0 0 1440 900">
  <defs>
    <linearGradient id="gradient" x1="0%" y1="0%" x2="100%" y2="100%">
      <stop offset="0%" style="stop-color:#3498db;stop-opacity:0.1" />
      <stop offset="100%" style="stop-color:#2ecc71;stop-opacity:0.1" />
    </linearGradient>
  </defs>
  <rect width="1440" height="900" fill="url(#gradient)"/>
  <g transform="translate(0,0)">
    <path d="M0,288L48,272C96,256,192,224,288,197.3C384,171,480,149,576,165.3C672,181,768,235,864,261.3C960,288,1056,288,1152,277.3C1248,267,1344,245,1392,234.7L1440,224L1440,0L1392,0C1344,0,1248,0,1152,0C1056,0,960,0,864,0C768,0,672,0,576,0C480,0,384,0,288,0C192,0,96,0,48,0L0,0Z" fill="#3498db" fill-opacity="0.1"></path>
  </g>
</svg>
